#!OML:ASF E:/inclinewalkrobotboard/Project1/Captureday1/Session1/subject1.ASF
:FULLY-SPECIFIED
:DEGREES
26
root 0 0 0 -2.3062827066529805 -0.9338173650107291 -0.13573215191318289
lowerback 10.834781055938251 -1.310783239545593 -1.588435805708701
upperback 0.12160078482568232 -1.8432290526924755 1.7578410809881138
thorax -5.880563949143126 -0.8769511757556403 2.947916132959188
lowerneck -17.804548088757453 -1.922690801993749 -1.1732446787637638
upperneck 15.468232407854666 -1.9443251329907234 -1.6197677208873362
head 7.707694710821023 -1.160536461860808 -0.6001777696363759
rclavicle 3.445255551481061E-16 -8.142004455813568E-16
rhumerus -32.74060921152697 -29.480510683127317 -81.51576756365976
rradius 17.335819743872385
rwrist 17.58961061788221
rhand -20.174905422932163 26.051475119752517
rfingers 7.125019999999984
rthumb 6.204775093263365 -4.073251620421203
lclavicle 6.902820915477606E-16 -1.3726587298783988E-15
lhumerus -29.51793615738589 -3.960373820949888 83.24417821051416
lradius 32.80700262573833
lwrist 10.11796657394323
lhand -28.351245753514547 25.45507336113896
lfingers 7.125020000000021
lthumb -1.731098993447226 55.45797754983685
rfemur -17.063979548644216 4.8347398362087555 25.92858980495336
rtibia 39.979004642277594
rfoot -8.175838987212904 -7.581213125551695
rtoes 3.7719774557105716
lfemur -5.408471249935657 -0.9432290549813005 -20.76998199838038
ltibia 37.383713615189464
lfoot -5.214707004965444 -5.800705757407698
ltoes -4.847524913139196
27
root 0 0 0 -2.8548947896456927 -1.8111035430438291 -0.7089085986281343
lowerback 11.479759646430786 -1.1051665504728359 -1.0732325984360933
upperback 0.10205321446466223 -1.4817917229685562 1.8970083071110135
thorax -6.263566070640595 -0.7088439917705498 2.7561906581928173
lowerneck -17.45408764839959 -1.9773210975540674 -0.8119628228943652
upperneck 15.330655202522435 -2.0071571812968925 -1.8260740505871025
head 7.626286784396318 -1.1939451591896586 -0.7342492953432969
rclavicle -2.330588338331578E-16 -1.541530617255948E-15
rhumerus -32.05058354701916 -28.710849554650654 -81.3396428138017
rradius 17.653083059704144
rwrist 17.57837480654703
rhand -19.92365328504151 26.416203478519733
rfingers 7.125019999999985
rthumb 6.444789863081477 -3.6776215639825978
lclavicle 4.746469091582822E-16 -1.798542765152132E-15
lhumerus -29.315791528043782 -3.593976912741666 83.81006637797819
lradius 31.84252343340786
lwrist 9.243399248000081
lhand -28.091415283239876 24.93522739120354
lfingers 7.125020000000019
lthumb -1.4777407127229 54.93047867306549
rfemur -14.410938594236033 5.298740557163557 27.812910307497503
rtibia 40.71334127612945
rfoot -8.956119263063563 -7.113751015797758
rtoes 4.751106505959655
lfemur -14.288463205055127 2.5912169000838503 -18.18401918282829
ltibia 43.16177513438559
lfoot -0.004300486908805468 -8.520210056450793
ltoes -5.023594335880503
28
root 0 0 0 -2.9710274753183117 -2.930678397043505 -1.9127497562455096
lowerback 11.374774693808176 -0.7560555970057597 0.18153057235812675
upperback 0.1297517771305115 -0.863758508706441 2.013358922399604
thorax -6.184301847267328 -0.4319311197179323 2.097039488444543
lowerneck -16.788222033186507 -1.992132262522309 -0.46009092279640906
upperneck 14.708689691697874 -2.0166921641115088 -1.90018870782597
head 7.2231828864723555 -1.20013208563875 -0.8091179356194984
rclavicle -1.175455509011837E-15 -7.530989001602778E-16
rhumerus -31.405638735044505 -27.743427383674728 -81.21543061539208
rradius 19.120491556925963
rwrist 17.774554308615688
rhand -19.99622357389579 26.520585043625587
rfingers 7.125019999999986
rthumb 6.375331523369281 -3.5725599142648434
lclavicle -2.078778114164424E-16 -9.669983817391875E-16
lhumerus -29.19538864576012 -3.252465464519551 84.19657297887217
lradius 30.99488801146145
lwrist 8.521500078509211
lhand -27.906324407147437 24.619740545423603
lfingers 7.125020000000018
lthumb -1.2958913894692143 54.61472049188906
rfemur -12.57077743538483 5.766817014320608 29.113863933968506
rtibia 39.89226905918774
rfoot -10.11359756282603 -6.982520623301271
rtoes 4.888901817134589
lfemur -16.88343942838118 3.4628016697038078 -17.26438607073606
ltibia 44.215173545964284
lfoot 0.720576125244559 -8.692906021683742
ltoes -5.781505564079168
29
root 0 0 0 -2.823779307638569 -3.747758331389224 -3.4869184078035893
lowerback 11.324164442737878 -0.14411538051602635 1.8265297786169816
upperback 0.20402459039876392 0.15196426793572404 2.121529238738985
thorax -6.048861571991323 0.029935818376148893 1.1441106816612991
lowerneck -16.688678915128015 -2.3466021283002076 -0.6035102080280454
upperneck 14.180840156500892 -2.493153549909956 -1.6489505814910979
head 6.954675640962669 -1.4266774878427506 -0.76047890054875
rclavicle -2.5098904995273344E-15 4.160087240824584E-16
rhumerus -30.48344614425016 -26.577423686700904 -80.98612939560176
rradius 21.770707226320695
rwrist 18.1320280218305
rhand -20.385832704856025 26.577359093131165
rfingers 7.125019999999987
rthumb 6.001188503441865 -3.5472533887327344
lclavicle -1.4235112518459758E-15 1.4448065796551E-16
lhumerus -28.958185555965283 -2.897112152276126 84.66955950378347
lradius 29.958040361203366
lwrist 7.725110427706886
lhand -27.74761694055148 24.41737510684985
lfingers 7.125020000000017
lthumb -1.1381794661810174 54.41417674067796
rfemur -10.852704969256859 6.208309429557676 29.96028815357527
rtibia 37.941539302516276
rfoot -11.415746841514986 -6.9271284508973086
rtoes 4.536828551312434
lfemur -17.971008133515777 3.634845161132601 -16.79141611367174
ltibia 44.08389539963837
lfoot 0.4819317261058984 -8.259204576174799
ltoes -6.697578763073171
30
root 0 0 0 -2.145038766029852 -4.658176811726614 -6.2031638103655045
lowerback 10.838428660989706 1.036104937408564 4.440010412727536
upperback -0.29206901188518647 2.0271754200466594 2.12821594549795
thorax -6.2611977251607325 0.893328452450256 -0.5983593042353056
lowerneck -17.027883728597406 -3.0134218285442618 -0.8835347317227322
upperneck 13.195760712067855 -3.5115949083254026 -0.9465910504242185
head 6.713471212166304 -1.8760349737871995 -0.5915029487307069
rclavicle -3.3382297179949012E-15 1.3727164290916675E-15
rhumerus -29.59774406642299 -25.16961364924764 -80.8926998038276
rradius 24.372544748175272
rwrist 18.213376564128822
rhand -20.834295463410385 26.956937327419617
rfingers 7.125019999999988
rthumb 5.568012473839846 -3.210107733423918
lclavicle -2.162510082310583E-15 1.0329691618118321E-15
lhumerus -28.9361501897068 -2.616647798323523 84.92914089026947
lradius 29.291191629836888
lwrist 7.2391774038034615
lhand -27.63587002152935 24.383037080374905
lfingers 7.125020000000015
lthumb -1.0270385707408458 54.38225942376789
rfemur -9.15442216292427 6.5562653588547555 30.428297757663586
rtibia 35.67171880534063
rfoot -12.521788173997091 -6.817358525083545
rtoes 4.075936195422098
lfemur -18.9052886113775 3.4313103043560425 -16.160370629688092
ltibia 43.32942015235335
lfoot -0.2579439107071586 -7.254462924832799
ltoes -8.477415759036457
31
root 0 0 0 -1.5724823199375113 -5.1428254253219805 -7.725655618507487
lowerback 10.044399399326853 1.969854255249626 5.946250729995373
upperback -0.7882267672558921 3.392048608307624 1.6743263471104433
thorax -6.363372040246729 1.5313208818107216 -2.1027636776339937
lowerneck -17.100644744300244 -3.1880347147528303 -0.9037586724786933
upperneck 12.913953768787694 -4.071479353074941 -0.03385399006778367
head 6.756493333521854 -2.034134111180544 -0.32946435379898603
rclavicle -3.420831316845235E-15 1.9587098146454495E-15
rhumerus -28.735353213811813 -23.45722488248755 -80.85413690516026
rradius 26.52220250211728
rwrist 17.583497668052654
rhand -21.137419121608108 27.68322048288504
rfingers 7.12501999999999
rthumb 5.272108999719724 -2.5102488319702587
lclavicle -1.9734195148054978E-15 1.5691266003954423E-15
lhumerus -29.219139497493064 -1.9734471550679256 84.9939728637638
lradius 28.246280960008995
lwrist 6.543611544303998
lhand -27.516693715040105 24.58194589478557
lfingers 7.125020000000012
lthumb -0.9105729303561407 54.58178135148772
rfemur -7.408459987138508 6.827031347040144 30.717541285014185
rtibia 33.53809485581053
rfoot -13.393243919985698 -6.622599114476303
rtoes 3.689661851160298
lfemur -20.401903942221548 2.672464884933963 -14.19637633904886
ltibia 41.2286925318
lfoot -2.5513430109628867 -4.340786657292767
ltoes -15.467541978715525
32
root 0 0 0 -1.0760285589330199 -5.487189447932074 -8.33176047802227
lowerback 9.579353907486723 2.6081157524710963 6.669652076628614
upperback -0.6787277200690799 4.2602427213511245 1.2257113083439826
thorax -6.0012327335799664 1.9416978942971057 -3.0747403750968276
lowerneck -15.970572548053436 -3.11611286355333 -0.9271231108375739
upperneck 13.436715951808278 -4.283338426877436 1.047349523006267
head 6.814517235050343 -2.024748571407663 0.0307458112177586
rclavicle -5.244665438266499E-15 2.2799112357089467E-15
rhumerus -27.77325537217837 -20.32451683386765 -81.36749902431671
rradius 28.554584081533452
rwrist 17.166147780241936
rhand -21.16460990937499 28.98642584313324
rfingers 7.125019999999993
rthumb 5.241202910178387 -1.2086962182975185
lclavicle -4.987252340456539E-15 1.6989190314498484E-15
lhumerus -30.169854193171062 1.568922423793699 85.02796979401501
lradius 22.374146808836066
lwrist 2.3062609680780928
lhand -26.95483294257916 24.939002903728177
lfingers 7.125020000000002
lthumb -0.36770749105507683 54.92334531113023
rfemur -5.680079052530976 6.915528349343335 30.49449187446408
rtibia 31.406468568809224
rfoot -13.87985996291946 -6.29554707568915
rtoes 3.2360409229768243
lfemur -22.697763979120865 0.7557096325812287 -8.875089437025387
ltibia 35.98336491684019
lfoot -8.893480885542235 3.211786910298773
ltoes -36.386662960528284
33
root 0 0 0 -0.8387715026319925 -5.557294063464827 -8.438062150661201
lowerback 9.602808547185923 2.7298064497751406 6.72401319358517
upperback -0.42590672778450667 4.418125642501765 1.1848877309360133
thorax -5.7302127723630125 2.0195141916215196 -3.1619536864045568
lowerneck -15.081777289057943 -3.118676152926579 -0.9344721661528966
upperneck 14.115926463366081 -4.36126173837384 1.4255803267696785
head 6.912781342189311 -2.0308163726646242 0.15728517127799277
rclavicle -6.054335823516731E-15 1.6225362529182466E-15
rhumerus -27.77039845571575 -18.839364737714877 -82.03072718245711
rradius 28.68236549020441
rwrist 17.51580652731134
rhand -21.031882760744473 29.547788257086196
rfingers 7.125019999999994
rthumb 5.368544935649313 -0.6470812829076067
lclavicle -6.805859829617057E-15 6.470398808190168E-16
lhumerus -32.0013362524061 4.979390332496713 84.13220507217062
lradius 18.112824728467444
lwrist -1.0839951315508607
lhand -26.325200241752317 24.886324359546855
lfingers 7.125019999999998
lthumb 0.23881427524252619 54.83200239517515
rfemur -4.814143601035111 6.822268009555188 29.89131168221649
rtibia 30.042995636960956
rfoot -13.845176799153535 -6.028854385801147
rtoes 2.9095307675780955
lfemur -23.270286383374536 0.05194013887898041 -8.076389328314772
ltibia 34.638788662316585
lfoot -9.947599566808211 4.675783656581795
ltoes -38.93338192399742
